<svg width="20" height="20" viewBox="0 0 20 20" fill="none" xmlns="http://www.w3.org/2000/svg">
<path d="M15 3.73342C13.6739 2.40734 11.8754 1.66235 9.99999 1.66235C8.12463 1.66235 6.32607 2.40734 4.99999 3.73342C3.67391 5.0595 2.92892 6.85806 2.92892 8.73342C2.92892 10.6088 3.67391 12.4073 4.99999 13.7334L9.39166 18.1334C9.46913 18.2115 9.5613 18.2735 9.66285 18.3158C9.76439 18.3581 9.87331 18.3799 9.98333 18.3799C10.0933 18.3799 10.2023 18.3581 10.3038 18.3158C10.4054 18.2735 10.4975 18.2115 10.575 18.1334L15 13.6918C16.3205 12.3712 17.0624 10.5801 17.0624 8.71259C17.0624 6.84504 16.3205 5.05399 15 3.73342ZM13.8083 12.5001L9.99999 16.3251L6.19166 12.5001C5.43928 11.747 4.92706 10.7878 4.71974 9.74366C4.51242 8.69953 4.61932 7.61738 5.02691 6.63399C5.43451 5.6506 6.12451 4.81013 7.00968 4.21882C7.89486 3.62751 8.93548 3.31191 9.99999 3.31191C11.0645 3.31191 12.1051 3.62751 12.9903 4.21882C13.8755 4.81013 14.5655 5.6506 14.9731 6.63399C15.3807 7.61738 15.4876 8.69953 15.2802 9.74366C15.0729 10.7878 14.5607 11.747 13.8083 12.5001ZM7.49999 6.17509C6.82725 6.8499 6.44949 7.76389 6.44949 8.71675C6.44949 9.66962 6.82725 10.5836 7.49999 11.2584C7.99979 11.7591 8.63631 12.101 9.3297 12.2413C10.0231 12.3815 10.7425 12.3139 11.3976 12.0469C12.0527 11.7799 12.6143 11.3253 13.0121 10.7403C13.4098 10.1553 13.6259 9.46581 13.6333 8.75842C13.6371 8.28609 13.5461 7.8178 13.3657 7.38124C13.1854 6.94468 12.9193 6.54872 12.5833 6.21675C12.2531 5.8789 11.8592 5.6097 11.4245 5.42464C10.9898 5.23958 10.5228 5.14232 10.0503 5.13845C9.57788 5.13457 9.10932 5.22417 8.67163 5.40208C8.23395 5.57999 7.83576 5.8427 7.49999 6.17509ZM11.4083 10.0751C11.0925 10.3957 10.6752 10.5967 10.2276 10.6436C9.78003 10.6906 9.33005 10.5806 8.95458 10.3325C8.57912 10.0844 8.30149 9.71362 8.16916 9.28349C8.03684 8.85336 8.05803 8.39062 8.22912 7.97438C8.40021 7.55815 8.71058 7.21427 9.10715 7.00153C9.50372 6.7888 9.96187 6.72043 10.4033 6.8081C10.8447 6.89578 11.2419 7.13405 11.5271 7.4822C11.8122 7.83034 11.9676 8.26673 11.9667 8.71675C11.9545 9.23115 11.7387 9.71969 11.3667 10.0751H11.4083Z" fill="#092A6D"/>
<path d="M14.1667 13.3334L10 15.8334L9.58333 13.7501L9.16666 12.0834L12.5 10.4167L12.9167 7.50008L10.8333 5.00008L7.91666 6.66675L7.08333 8.75008L8.75 11.6667L9.16666 16.2501L5.83333 13.7501L3.33333 9.16675L4.58333 5.41675L7.5 3.33341L11.25 2.91675L14.5833 4.58341L15.4167 7.50008V10.8334L14.1667 13.3334Z" fill="#092A6D" stroke="#092A6D"/>
</svg>
