<svg width="8" height="5" viewBox="0 0 8 5" fill="none" xmlns="http://www.w3.org/2000/svg">
<path d="M6.83334 0.613295C6.70843 0.489128 6.53946 0.419434 6.36334 0.419434C6.18722 0.419434 6.01825 0.489128 5.89334 0.613295L3.50001 2.97329L1.14001 0.613295C1.0151 0.489128 0.84613 0.419434 0.670006 0.419434C0.493883 0.419434 0.324915 0.489128 0.200006 0.613295C0.137521 0.675271 0.0879245 0.749005 0.0540787 0.830244C0.020233 0.911484 0.00280762 0.998621 0.00280762 1.08663C0.00280762 1.17464 0.020233 1.26177 0.0540787 1.34301C0.0879245 1.42425 0.137521 1.49799 0.200006 1.55996L3.02667 4.38663C3.08865 4.44911 3.16238 4.49871 3.24362 4.53256C3.32486 4.5664 3.412 4.58383 3.50001 4.58383C3.58801 4.58383 3.67515 4.5664 3.75639 4.53256C3.83763 4.49871 3.91136 4.44911 3.97334 4.38663L6.83334 1.55996C6.89582 1.49799 6.94542 1.42425 6.97927 1.34301C7.01311 1.26177 7.03054 1.17464 7.03054 1.08663C7.03054 0.998621 7.01311 0.911484 6.97927 0.830244C6.94542 0.749005 6.89582 0.675271 6.83334 0.613295Z" fill="#092A6D"/>
</svg>
